<svg xmlns="http://www.w3.org/2000/svg" version="1.0" width="1024px" height="1024px" viewBox="0 0 1024 1024" preserveAspectRatio="xMidYMid meet">
 <g fill="#329dd4">
  <path d="M579 686.1 c-11.7 -1.7 -23.7 -11.7 -28 -23.2 -1.9 -4.9 -2.2 -7.4 -1.8 -14.2 0.7 -13 5.3 -21.1 16.2 -28.8 l5.1 -3.5 0.3 -41 c0.1 -22.5 0 -41.9 -0.3 -43.1 l-0.5 -2.3 -33 0 -33 0 -1 2.3 c-0.8 2.1 -2 6.8 -10 41.7 -1.7 7.4 -3.7 16.2 -4.5 19.5 -0.8 3.3 -4.4 18.6 -8 34 -7.6 32.8 -12.3 51.3 -13.5 53.6 -0.7 1.2 -3.1 1.8 -9.8 2.3 -11 0.8 -13.8 -0.2 -15.2 -5.3 -1.8 -6.6 -15 -64.3 -20.6 -89.6 -3 -13.7 -6.8 -31.1 -8.5 -38.5 -1.6 -7.4 -3.4 -15.3 -3.9 -17.5 -0.5 -2.2 -1.3 -6 -1.9 -8.5 -0.6 -2.5 -2.9 -12.8 -5.2 -23 -10.5 -47.9 -15.9 -71.3 -16.3 -71.7 -1.1 -1.2 -3.4 7.1 -18 65.7 -19.5 78.3 -20.2 80.9 -22.2 83.2 -1.4 1.5 -3.3 1.8 -11.5 1.8 -11.2 0 -11.7 -0.3 -13.9 -9 -1.8 -7 -13.8 -47.6 -16.6 -56.2 -1.4 -4.3 -2.9 -7.8 -3.4 -7.8 -0.5 0 -2.1 3.3 -3.6 7.3 -4.5 12 -5.4 14.1 -6.7 14.9 -0.7 0.4 -17.5 0.8 -37.4 0.8 l-36.3 0 -1.5 -2.3 c-1.2 -1.9 -1.4 -4.5 -1 -12.7 0.3 -5.7 1 -10.9 1.6 -11.6 0.9 -1.1 7.3 -1.4 29.3 -1.6 l28.1 -0.3 8.3 -24 c4.5 -13.2 9 -24.6 9.9 -25.2 2 -1.6 17.6 -1.8 20.3 -0.3 2 1.1 6.3 13.3 15.2 43.4 2.7 9.4 5.2 17.9 5.5 18.9 0.3 0.9 0.9 1.7 1.3 1.7 0.5 0 1.1 -0.8 1.4 -1.7 1 -3.4 29.6 -120.2 35.5 -145.2 1.7 -6.7 3.7 -13.2 4.7 -14.2 1.4 -1.6 3.1 -1.9 11 -1.9 6.7 0 9.7 0.4 10.7 1.4 1.7 1.8 2.4 4.3 14.2 56.1 0.7 3.3 2.3 10.1 3.4 15 1.1 5 4.3 19.6 7.1 32.5 2.8 12.9 6.2 28.2 7.5 34 1.3 5.8 6.3 28.1 11 49.5 4.7 21.5 9.9 45.1 11.6 52.5 2.9 13.1 4.3 16.8 5.3 13.9 0.6 -1.6 5.6 -22 7.9 -32.4 0.9 -3.8 2.8 -11.7 4.1 -17.5 6.3 -26.8 9.5 -41 10.7 -46.5 2.1 -10.3 -1.9 -9.5 47.4 -9.5 33.7 0 43.4 -0.3 43.8 -1.2 0.2 -0.7 0.5 -19.2 0.6 -41 0.3 -44.5 1 -39.9 -7.6 -45.9 -9.7 -6.7 -14.8 -17.6 -14.1 -30.8 1.3 -30.1 37.6 -45 59.7 -24.5 17.8 16.4 15.7 43.6 -4.3 56.2 l-6.6 4.2 0 34.3 c0 18.9 0.4 34.8 0.9 35.6 0.8 1.2 3.7 -0.6 14.6 -9 7.5 -5.7 20.5 -15.6 28.8 -21.9 l15.2 -11.6 0.6 -9.5 c0.4 -7.6 1.1 -10.8 3.2 -15 4 -8.3 8.9 -13.4 16.5 -17.1 6.2 -3.1 7.4 -3.3 16.7 -3.3 9.1 0 10.5 0.3 15.8 3 8.1 4 14.6 11.4 17.6 19.8 2 5.7 2.3 8.2 1.9 15.1 -0.5 10.4 -3.8 17.6 -10.8 23.9 -6.9 6.2 -12.9 8.8 -22 9.4 -6.3 0.5 -8.7 0.1 -15.3 -2.1 -4.3 -1.4 -8.4 -2.3 -9.1 -1.9 -5.2 3.2 -39.6 30.8 -39.6 31.9 0 1.2 8.7 1.4 54.4 1.4 l54.4 0 1.7 -3.7 c2.6 -5.4 10.8 -13.1 17.3 -16.1 4.9 -2.3 6.9 -2.7 15.2 -2.7 8.2 0.1 10.3 0.4 15 2.7 14 6.7 21.7 19.9 20.8 35.4 -0.9 13.1 -8.3 24.1 -20.6 30.1 -7.9 3.9 -19.2 4.4 -27.4 1.3 -7.1 -2.6 -14.5 -8.4 -18.2 -14.4 l-2.9 -4.6 -54.8 0 c-30.2 0 -54.9 0.4 -54.9 0.8 0 1.2 4.3 5 13.9 12.3 7.8 5.9 13 9.9 22.5 17.3 l3.7 2.9 8.4 -2.8 c7.3 -2.4 9.5 -2.7 15.5 -2.2 13.3 1.1 25.2 9.1 30.1 20.3 14.5 32.7 -19.1 64 -50.5 47.1 -11.3 -6.1 -18.5 -18.9 -18.6 -32.9 l0 -6.7 -6.7 -5.5 c-19.8 -15.9 -50 -38.5 -51.5 -38.6 -1.7 0 -1.8 2.4 -1.8 37 l0 36.9 4.4 2.6 c5.6 3.3 12.8 10.9 15.6 16.6 1.5 3.1 2.3 7 2.7 13.1 0.8 12.1 -1.7 18.9 -10.2 27.4 -8.5 8.7 -19.4 12.3 -31.5 10.5z"/>
 </g>
</svg>
